<?xml version="1.0" encoding="UTF-8" standalone="no"?>
<!DOCTYPE svg PUBLIC "-//W3C//DTD SVG 1.1//EN"
 "http://www.w3.org/Graphics/SVG/1.1/DTD/svg11.dtd">
<!-- Generated by graphviz version 2.38.0 (20140413.2041)
 -->
<!-- Title: G Pages: 1 -->
<svg width="1117pt" height="871pt"
 viewBox="0.00 0.00 1117.00 871.00" xmlns="http://www.w3.org/2000/svg" xmlns:xlink="http://www.w3.org/1999/xlink">
<g id="graph0" class="graph" transform="scale(1 1) rotate(0) translate(4 867)">
<title>G</title>
<polygon fill="white" stroke="none" points="-4,4 -4,-867 1113,-867 1113,4 -4,4"/>
<g id="clust1" class="cluster"><title>cluster_speaker</title>
<polygon fill="lightgrey" stroke="lightgrey" points="132,-94 132,-786 530,-786 530,-94 132,-94"/>
<text text-anchor="middle" x="331" y="-770.8" font-family="Times,serif" font-size="14.00">SPEAKER LAPTOP ENCODER</text>
</g>
<g id="clust2" class="cluster"><title>cluster_camera</title>
<polygon fill="lightgrey" stroke="lightgrey" points="612,-190.5 612,-572 1056,-572 1056,-190.5 612,-190.5"/>
<text text-anchor="middle" x="834" y="-556.8" font-family="Times,serif" font-size="14.00">CAMERA ENCODER</text>
</g>
<!-- speaker_laptop -->
<g id="node1" class="node"><title>speaker_laptop</title>
<polygon fill="none" stroke="black" points="449.5,-863 354.5,-863 354.5,-827 449.5,-827 449.5,-863"/>
<text text-anchor="middle" x="402" y="-841.3" font-family="Times,serif" font-size="14.00">speaker laptop</text>
</g>
<!-- cluster_speaker_vga_in -->
<g id="node5" class="node"><title>cluster_speaker_vga_in</title>
<g id="a_node5"><a xlink:href="http://eu.mouser.com/ProductDetail/Switchcraft/EHHD15FF/?qs=gNS5EA6ck2a8z5%2F0XaeFOw%3D%3D" xlink:title="vga in coupler\n(panel mount)">
<polygon fill="lightgrey" stroke="black" points="499.5,-755 404.5,-755 404.5,-717 499.5,-717 499.5,-755"/>
<text text-anchor="middle" x="452" y="-739.8" font-family="Times,serif" font-size="14.00">vga in coupler</text>
<text text-anchor="middle" x="452" y="-724.8" font-family="Times,serif" font-size="14.00">(panel mount)</text>
</a>
</g>
</g>
<!-- speaker_laptop&#45;&gt;cluster_speaker_vga_in -->
<g id="edge28" class="edge"><title>speaker_laptop&#45;&gt;cluster_speaker_vga_in</title>
<path fill="none" stroke="black" d="M410.033,-826.809C417.909,-809.954 430.039,-783.996 439.237,-764.314"/>
<polygon fill="black" stroke="black" points="442.422,-765.764 443.485,-755.223 436.08,-762.801 442.422,-765.764"/>
<text text-anchor="middle" x="435" y="-797.8" font-family="Times,serif" font-size="14.00">vga</text>
</g>
<!-- cluster_speaker_audio_in -->
<g id="node7" class="node"><title>cluster_speaker_audio_in</title>
<g id="a_node7"><a xlink:href="http://www.bax-shop.nl/luidspreker-pluggen/neutrik-nl4mp-st-speakon-4-polig-chassisdeel-male/product-details.html" xlink:title="audio in coupler\n(panel mount)">
<polygon fill="lightgrey" stroke="black" points="383.5,-755 278.5,-755 278.5,-717 383.5,-717 383.5,-755"/>
<text text-anchor="middle" x="331" y="-739.8" font-family="Times,serif" font-size="14.00">audio in coupler</text>
<text text-anchor="middle" x="331" y="-724.8" font-family="Times,serif" font-size="14.00">(panel mount)</text>
</a>
</g>
</g>
<!-- speaker_laptop&#45;&gt;cluster_speaker_audio_in -->
<g id="edge30" class="edge"><title>speaker_laptop&#45;&gt;cluster_speaker_audio_in</title>
<path fill="none" stroke="black" d="M390.593,-826.809C379.307,-809.801 361.87,-783.523 348.769,-763.778"/>
<polygon fill="black" stroke="black" points="351.537,-761.62 343.092,-755.223 345.705,-765.491 351.537,-761.62"/>
<text text-anchor="middle" x="305.092" y="-759.023" font-family="Times,serif" font-size="14.00">speakon male</text>
<text text-anchor="middle" x="351.093" y="-815.609" font-family="Times,serif" font-size="14.00">minijack male</text>
</g>
<!-- camera_with_audio_gear -->
<g id="node2" class="node"><title>camera_with_audio_gear</title>
<polygon fill="none" stroke="black" points="923.5,-657.5 778.5,-657.5 778.5,-621.5 923.5,-621.5 923.5,-657.5"/>
<text text-anchor="middle" x="851" y="-635.8" font-family="Times,serif" font-size="14.00">camera with audio gear</text>
</g>
<!-- cluster_camera_h264 -->
<g id="node21" class="node"><title>cluster_camera_h264</title>
<g id="a_node21"><a xlink:href="https://www.blackmagicdesign.com/products/h264prorecorder/techspecs/" xlink:title="h264 encoder\n12v">
<polygon fill="lightgrey" stroke="black" points="896,-541 806,-541 806,-503 896,-503 896,-541"/>
<text text-anchor="middle" x="851" y="-525.8" font-family="Times,serif" font-size="14.00">h264 encoder</text>
<text text-anchor="middle" x="851" y="-510.8" font-family="Times,serif" font-size="14.00">12v</text>
</a>
</g>
</g>
<!-- camera_with_audio_gear&#45;&gt;cluster_camera_h264 -->
<g id="edge22" class="edge"><title>camera_with_audio_gear&#45;&gt;cluster_camera_h264</title>
<path fill="none" stroke="black" d="M851,-621.458C851,-603.015 851,-573.302 851,-551.336"/>
<polygon fill="black" stroke="black" points="854.5,-551.257 851,-541.257 847.5,-551.258 854.5,-551.257"/>
<text text-anchor="middle" x="859" y="-583.8" font-family="Times,serif" font-size="14.00">sdi</text>
<text text-anchor="middle" x="980" y="-545.057" font-family="Times,serif" font-size="14.00">BNC 75 Ohm connector with Neutrik reartwist</text>
<text text-anchor="middle" x="784" y="-610.258" font-family="Times,serif" font-size="14.00">BNC 75 Ohm connector</text>
</g>
<!-- room_sound_system -->
<g id="node3" class="node"><title>room_sound_system</title>
<polygon fill="none" stroke="black" points="124,-451 7.10543e-15,-451 7.10543e-15,-415 124,-415 124,-451"/>
<text text-anchor="middle" x="62" y="-429.3" font-family="Times,serif" font-size="14.00">room sound system</text>
</g>
<!-- inet -->
<g id="node4" class="node"><title>inet</title>
<polygon fill="none" stroke="black" points="864.5,-36 759.5,-36 759.5,-0 864.5,-0 864.5,-36"/>
<text text-anchor="middle" x="812" y="-14.3" font-family="Times,serif" font-size="14.00">fosdem network</text>
</g>
<!-- cluster_speaker_vga_splitter -->
<g id="node10" class="node"><title>cluster_speaker_vga_splitter</title>
<g id="a_node10"><a xlink:href="http://www.lindy.co.uk/audio-video-c2/splitters-c159/vga-c160/2-port-vga-splitter-150mhz-p6701" xlink:title="vga splitter\n5v 500mA">
<polygon fill="lightgrey" stroke="black" points="493.5,-658.5 416.5,-658.5 416.5,-620.5 493.5,-620.5 493.5,-658.5"/>
<text text-anchor="middle" x="455" y="-643.3" font-family="Times,serif" font-size="14.00">vga splitter</text>
<text text-anchor="middle" x="455" y="-628.3" font-family="Times,serif" font-size="14.00">5v 500mA</text>
</a>
</g>
</g>
<!-- cluster_speaker_vga_in&#45;&gt;cluster_speaker_vga_splitter -->
<g id="edge1" class="edge"><title>cluster_speaker_vga_in&#45;&gt;cluster_speaker_vga_splitter</title>
<path fill="none" stroke="black" d="M452.578,-716.779C453.01,-703.183 453.608,-684.351 454.102,-668.801"/>
<polygon fill="black" stroke="black" points="457.604,-668.771 454.423,-658.665 450.608,-668.548 457.604,-668.771"/>
<text text-anchor="middle" x="464" y="-687.8" font-family="Times,serif" font-size="14.00">vga</text>
</g>
<!-- cluster_speaker_vga_out -->
<g id="node6" class="node"><title>cluster_speaker_vga_out</title>
<g id="a_node6"><a xlink:href="http://eu.mouser.com/ProductDetail/Switchcraft/EHHD15FF/?qs=gNS5EA6ck2a8z5%2F0XaeFOw%3D%3D" xlink:title="vga out coupler\n(panel mount)">
<polygon fill="lightgrey" stroke="black" points="521.5,-541 420.5,-541 420.5,-503 521.5,-503 521.5,-541"/>
<text text-anchor="middle" x="471" y="-525.8" font-family="Times,serif" font-size="14.00">vga out coupler</text>
<text text-anchor="middle" x="471" y="-510.8" font-family="Times,serif" font-size="14.00">(panel mount)</text>
</a>
</g>
</g>
<!-- projector -->
<g id="node31" class="node"><title>projector</title>
<polygon fill="none" stroke="black" points="603.5,-451 538.5,-451 538.5,-415 603.5,-415 603.5,-451"/>
<text text-anchor="middle" x="571" y="-429.3" font-family="Times,serif" font-size="14.00">projector</text>
</g>
<!-- cluster_speaker_vga_out&#45;&gt;projector -->
<g id="edge29" class="edge"><title>cluster_speaker_vga_out&#45;&gt;projector</title>
<path fill="none" stroke="black" d="M491.72,-502.974C506.764,-489.885 527.268,-472.047 543.655,-457.79"/>
<polygon fill="black" stroke="black" points="546.08,-460.32 551.327,-451.115 541.485,-455.039 546.08,-460.32"/>
<text text-anchor="middle" x="537" y="-473.8" font-family="Times,serif" font-size="14.00">vga</text>
</g>
<!-- cluster_speaker_audio_splitter -->
<g id="node9" class="node"><title>cluster_speaker_audio_splitter</title>
<polygon fill="lightgrey" stroke="black" points="398,-666 262,-666 262,-613 398,-613 398,-666"/>
<text text-anchor="middle" x="330" y="-650.8" font-family="Times,serif" font-size="14.00">audio splitter</text>
<text text-anchor="middle" x="330" y="-635.8" font-family="Times,serif" font-size="14.00">3.5mm jack f in</text>
<text text-anchor="middle" x="330" y="-620.8" font-family="Times,serif" font-size="14.00">2x 3.5mm jack m out</text>
</g>
<!-- cluster_speaker_audio_in&#45;&gt;cluster_speaker_audio_splitter -->
<g id="edge4" class="edge"><title>cluster_speaker_audio_in&#45;&gt;cluster_speaker_audio_splitter</title>
<path fill="none" stroke="black" d="M330.807,-716.779C330.686,-705.325 330.525,-690.155 330.379,-676.362"/>
<polygon fill="black" stroke="black" points="333.877,-676.129 330.272,-666.167 326.878,-676.203 333.877,-676.129"/>
<text text-anchor="middle" x="289.272" y="-669.967" font-family="Times,serif" font-size="14.00">3.5mm jack m</text>
<text text-anchor="middle" x="287.307" y="-705.579" font-family="Times,serif" font-size="14.00">screw terminals</text>
</g>
<!-- cluster_speaker_audio_out -->
<g id="node8" class="node"><title>cluster_speaker_audio_out</title>
<g id="a_node8"><a xlink:href="http://www.bax-shop.nl/luidspreker-pluggen/neutrik-nl4mp-st-speakon-4-polig-chassisdeel-male/product-details.html" xlink:title="audio out coupler\n(panel mount)">
<polygon fill="lightgrey" stroke="black" points="260,-541 148,-541 148,-503 260,-503 260,-541"/>
<text text-anchor="middle" x="204" y="-525.8" font-family="Times,serif" font-size="14.00">audio out coupler</text>
<text text-anchor="middle" x="204" y="-510.8" font-family="Times,serif" font-size="14.00">(panel mount)</text>
</a>
</g>
</g>
<!-- cluster_speaker_audio_out&#45;&gt;room_sound_system -->
<g id="edge31" class="edge"><title>cluster_speaker_audio_out&#45;&gt;room_sound_system</title>
<path fill="none" stroke="black" d="M174.578,-502.974C152.535,-489.469 122.238,-470.907 98.6265,-456.44"/>
<polygon fill="black" stroke="black" points="100.291,-453.355 89.9355,-451.115 96.6339,-459.324 100.291,-453.355"/>
<text text-anchor="middle" x="75.4355" y="-454.915" font-family="Times,serif" font-size="14.00">jack?</text>
<text text-anchor="middle" x="136.578" y="-491.774" font-family="Times,serif" font-size="14.00">speakon male</text>
</g>
<!-- cluster_speaker_audio_splitter&#45;&gt;cluster_speaker_audio_out -->
<g id="edge6" class="edge"><title>cluster_speaker_audio_splitter&#45;&gt;cluster_speaker_audio_out</title>
<path fill="none" stroke="black" d="M302.037,-612.867C280.95,-593.537 252.185,-567.17 231.27,-547.997"/>
<polygon fill="black" stroke="black" points="233.407,-545.208 223.67,-541.031 228.677,-550.368 233.407,-545.208"/>
<text text-anchor="middle" x="306.5" y="-583.8" font-family="Times,serif" font-size="14.00">minijack</text>
<text text-anchor="middle" x="180.17" y="-544.831" font-family="Times,serif" font-size="14.00">screw terminals</text>
<text text-anchor="middle" x="264.537" y="-601.667" font-family="Times,serif" font-size="14.00">3.5mm jack f</text>
</g>
<!-- cluster_speaker_vgahdmi -->
<g id="node11" class="node"><title>cluster_speaker_vgahdmi</title>
<g id="a_node11"><a xlink:href="http://www.lenkeng.com/china/showproduct.asp?id=153" xlink:title="vga&#45;&gt; hdmi scaler\n5v 1A">
<polygon fill="lightgrey" stroke="black" points="402,-541 286,-541 286,-503 402,-503 402,-541"/>
<text text-anchor="middle" x="344" y="-525.8" font-family="Times,serif" font-size="14.00">vga&#45;&gt; hdmi scaler</text>
<text text-anchor="middle" x="344" y="-510.8" font-family="Times,serif" font-size="14.00">5v 1A</text>
</a>
</g>
</g>
<!-- cluster_speaker_audio_splitter&#45;&gt;cluster_speaker_vgahdmi -->
<g id="edge5" class="edge"><title>cluster_speaker_audio_splitter&#45;&gt;cluster_speaker_vgahdmi</title>
<path fill="none" stroke="black" d="M333.107,-612.867C335.326,-594.559 338.311,-569.938 340.594,-551.096"/>
<polygon fill="black" stroke="black" points="344.086,-551.38 341.814,-541.031 337.136,-550.537 344.086,-551.38"/>
<text text-anchor="middle" x="361.5" y="-583.8" font-family="Times,serif" font-size="14.00">minijack</text>
<text text-anchor="middle" x="300.814" y="-544.831" font-family="Times,serif" font-size="14.00">3.5mm jack m</text>
<text text-anchor="middle" x="370.607" y="-601.667" font-family="Times,serif" font-size="14.00">3.5mm jack f</text>
</g>
<!-- cluster_speaker_vga_splitter&#45;&gt;cluster_speaker_vga_out -->
<g id="edge2" class="edge"><title>cluster_speaker_vga_splitter&#45;&gt;cluster_speaker_vga_out</title>
<path fill="none" stroke="black" d="M457.5,-620.453C460.068,-601.915 464.102,-572.798 467.092,-551.213"/>
<polygon fill="black" stroke="black" points="470.559,-551.687 468.465,-541.301 463.626,-550.726 470.559,-551.687"/>
<text text-anchor="middle" x="473" y="-583.8" font-family="Times,serif" font-size="14.00">vga</text>
</g>
<!-- cluster_speaker_vga_splitter&#45;&gt;cluster_speaker_vgahdmi -->
<g id="edge3" class="edge"><title>cluster_speaker_vga_splitter&#45;&gt;cluster_speaker_vgahdmi</title>
<path fill="none" stroke="black" d="M437.656,-620.453C419.112,-601.157 389.551,-570.397 368.605,-548.603"/>
<polygon fill="black" stroke="black" points="371.041,-546.086 361.588,-541.301 365.994,-550.937 371.041,-546.086"/>
<text text-anchor="middle" x="423" y="-583.8" font-family="Times,serif" font-size="14.00">vga</text>
</g>
<!-- cluster_speaker_h264 -->
<g id="node12" class="node"><title>cluster_speaker_h264</title>
<g id="a_node12"><a xlink:href="https://www.blackmagicdesign.com/products/h264prorecorder/techspecs/" xlink:title="h264 encoder\n12v 840mA">
<polygon fill="lightgrey" stroke="black" points="389,-452 299,-452 299,-414 389,-414 389,-452"/>
<text text-anchor="middle" x="344" y="-436.8" font-family="Times,serif" font-size="14.00">h264 encoder</text>
<text text-anchor="middle" x="344" y="-421.8" font-family="Times,serif" font-size="14.00">12v 840mA</text>
</a>
</g>
</g>
<!-- cluster_speaker_vgahdmi&#45;&gt;cluster_speaker_h264 -->
<g id="edge7" class="edge"><title>cluster_speaker_vgahdmi&#45;&gt;cluster_speaker_h264</title>
<path fill="none" stroke="black" d="M344,-502.974C344,-491.192 344,-475.561 344,-462.158"/>
<polygon fill="black" stroke="black" points="347.5,-462.003 344,-452.003 340.5,-462.003 347.5,-462.003"/>
<text text-anchor="middle" x="358.5" y="-473.8" font-family="Times,serif" font-size="14.00">hdmi</text>
</g>
<!-- cluster_speaker_bpi -->
<g id="node13" class="node"><title>cluster_speaker_bpi</title>
<g id="a_node13"><a xlink:href="http://www.bananapi.org/p/product.html" xlink:title="banana pi\n5v max 500mA">
<polygon fill="lightgrey" stroke="black" points="397.5,-348 294.5,-348 294.5,-310 397.5,-310 397.5,-348"/>
<text text-anchor="middle" x="346" y="-332.8" font-family="Times,serif" font-size="14.00">banana pi</text>
<text text-anchor="middle" x="346" y="-317.8" font-family="Times,serif" font-size="14.00">5v max 500mA</text>
</a>
</g>
</g>
<!-- cluster_speaker_h264&#45;&gt;cluster_speaker_bpi -->
<g id="edge8" class="edge"><title>cluster_speaker_h264&#45;&gt;cluster_speaker_bpi</title>
<path fill="none" stroke="black" d="M344.358,-413.764C344.66,-398.317 345.1,-375.915 345.448,-358.164"/>
<polygon fill="black" stroke="black" points="348.949,-358.144 345.646,-348.078 341.95,-358.007 348.949,-358.144"/>
<text text-anchor="middle" x="354.5" y="-384.8" font-family="Times,serif" font-size="14.00">usb</text>
</g>
<!-- cluster_speaker_switch -->
<g id="node14" class="node"><title>cluster_speaker_switch</title>
<g id="a_node14"><a xlink:href="http://us.dlink.com/wp-content/uploads/2014/03/GO-SW-8G_REVC_DATASHEET_1.00_EN.pdf" xlink:title="5 port ethernet switch\n5v 1A">
<polygon fill="lightgrey" stroke="black" points="278.5,-236.5 143.5,-236.5 143.5,-198.5 278.5,-198.5 278.5,-236.5"/>
<text text-anchor="middle" x="211" y="-221.3" font-family="Times,serif" font-size="14.00">5 port ethernet switch</text>
<text text-anchor="middle" x="211" y="-206.3" font-family="Times,serif" font-size="14.00">5v 1A</text>
</a>
</g>
</g>
<!-- cluster_speaker_bpi&#45;&gt;cluster_speaker_switch -->
<g id="edge9" class="edge"><title>cluster_speaker_bpi&#45;&gt;cluster_speaker_switch</title>
<path fill="none" stroke="black" d="M323.707,-309.918C301.235,-291.69 266.389,-263.426 241.393,-243.152"/>
<polygon fill="black" stroke="black" points="243.297,-240.19 233.326,-236.609 238.887,-245.626 243.297,-240.19"/>
<text text-anchor="middle" x="305" y="-265.8" font-family="Times,serif" font-size="14.00">ethernet</text>
</g>
<!-- cluster_speaker_storage -->
<g id="node18" class="node"><title>cluster_speaker_storage</title>
<polygon fill="lightgrey" stroke="black" points="399.5,-244 296.5,-244 296.5,-191 399.5,-191 399.5,-244"/>
<text text-anchor="middle" x="348" y="-228.8" font-family="Times,serif" font-size="14.00">storage</text>
<text text-anchor="middle" x="348" y="-213.8" font-family="Times,serif" font-size="14.00">&gt;=32Gb ssd</text>
<text text-anchor="middle" x="348" y="-198.8" font-family="Times,serif" font-size="14.00">5v max 600mA</text>
</g>
<!-- cluster_speaker_bpi&#45;&gt;cluster_speaker_storage -->
<g id="edge10" class="edge"><title>cluster_speaker_bpi&#45;&gt;cluster_speaker_storage</title>
<path fill="none" stroke="black" d="M346.33,-309.918C346.604,-294.92 347.002,-273.126 347.341,-254.58"/>
<polygon fill="black" stroke="black" points="350.844,-254.456 347.527,-244.394 343.845,-254.328 350.844,-254.456"/>
<text text-anchor="middle" x="359" y="-265.8" font-family="Times,serif" font-size="14.00">sata</text>
</g>
<!-- cluster_speaker_monitoring_panel -->
<g id="node19" class="node"><title>cluster_speaker_monitoring_panel</title>
<g id="a_node19"><a xlink:href="http://embeddedcomputer.nl/banana-pi-14/banana-pi-3-5-lcd-screen.html" xlink:title="3.5 in lcd panel\n5v 250mA">
<polygon fill="lightgrey" stroke="black" points="518.5,-236.5 417.5,-236.5 417.5,-198.5 518.5,-198.5 518.5,-236.5"/>
<text text-anchor="middle" x="468" y="-221.3" font-family="Times,serif" font-size="14.00">3.5 in lcd panel</text>
<text text-anchor="middle" x="468" y="-206.3" font-family="Times,serif" font-size="14.00">5v 250mA</text>
</a>
</g>
</g>
<!-- cluster_speaker_bpi&#45;&gt;cluster_speaker_monitoring_panel -->
<g id="edge11" class="edge"><title>cluster_speaker_bpi&#45;&gt;cluster_speaker_monitoring_panel</title>
<path fill="none" stroke="black" d="M366.146,-309.918C386.366,-291.77 417.671,-263.672 440.239,-243.417"/>
<polygon fill="black" stroke="black" points="442.72,-245.893 447.824,-236.609 438.044,-240.683 442.72,-245.893"/>
<text text-anchor="middle" x="443" y="-265.8" font-family="Times,serif" font-size="14.00">fpc cable</text>
</g>
<!-- cluster_speaker_switch_1 -->
<g id="node15" class="node"><title>cluster_speaker_switch_1</title>
<g id="a_node15"><a xlink:href="http://www.alibaba.com/product-detail/Panel-mount-Screw-lock-Cat5e-Coupler_1799594993.html" xlink:title="ethernet coupler 1\n(panel mount)">
<polygon fill="lightgrey" stroke="black" points="521.5,-140 406.5,-140 406.5,-102 521.5,-102 521.5,-140"/>
<text text-anchor="middle" x="464" y="-124.8" font-family="Times,serif" font-size="14.00">ethernet coupler 1</text>
<text text-anchor="middle" x="464" y="-109.8" font-family="Times,serif" font-size="14.00">(panel mount)</text>
</a>
</g>
</g>
<!-- cluster_speaker_switch&#45;&gt;cluster_speaker_switch_1 -->
<g id="edge12" class="edge"><title>cluster_speaker_switch&#45;&gt;cluster_speaker_switch_1</title>
<path fill="none" stroke="black" d="M263.21,-198.475C285.134,-190.792 310.867,-181.625 334,-173 358.957,-163.695 386.436,-152.983 409.675,-143.786"/>
<polygon fill="black" stroke="black" points="411.017,-147.02 419.022,-140.079 408.436,-140.513 411.017,-147.02"/>
<text text-anchor="middle" x="392" y="-161.8" font-family="Times,serif" font-size="14.00">ethernet</text>
</g>
<!-- cluster_speaker_switch_2 -->
<g id="node16" class="node"><title>cluster_speaker_switch_2</title>
<g id="a_node16"><a xlink:href="http://www.alibaba.com/product-detail/Panel-mount-Screw-lock-Cat5e-Coupler_1799594993.html" xlink:title="ethernet coupler 2\n(panel mount)">
<polygon fill="lightgrey" stroke="black" points="255.5,-140 140.5,-140 140.5,-102 255.5,-102 255.5,-140"/>
<text text-anchor="middle" x="198" y="-124.8" font-family="Times,serif" font-size="14.00">ethernet coupler 2</text>
<text text-anchor="middle" x="198" y="-109.8" font-family="Times,serif" font-size="14.00">(panel mount)</text>
</a>
</g>
</g>
<!-- cluster_speaker_switch&#45;&gt;cluster_speaker_switch_2 -->
<g id="edge13" class="edge"><title>cluster_speaker_switch&#45;&gt;cluster_speaker_switch_2</title>
<path fill="none" stroke="black" d="M208.493,-198.279C206.623,-184.683 204.032,-165.851 201.893,-150.301"/>
<polygon fill="black" stroke="black" points="205.329,-149.594 200.499,-140.165 198.394,-150.548 205.329,-149.594"/>
<text text-anchor="middle" x="227" y="-161.8" font-family="Times,serif" font-size="14.00">ethernet</text>
</g>
<!-- cluster_speaker_switch_3 -->
<g id="node17" class="node"><title>cluster_speaker_switch_3</title>
<g id="a_node17"><a xlink:href="http://www.alibaba.com/product-detail/Panel-mount-Screw-lock-Cat5e-Coupler_1799594993.html" xlink:title="ethernet coupler 3\n(panel mount)">
<polygon fill="lightgrey" stroke="black" points="388.5,-140 273.5,-140 273.5,-102 388.5,-102 388.5,-140"/>
<text text-anchor="middle" x="331" y="-124.8" font-family="Times,serif" font-size="14.00">ethernet coupler 3</text>
<text text-anchor="middle" x="331" y="-109.8" font-family="Times,serif" font-size="14.00">(panel mount)</text>
</a>
</g>
</g>
<!-- cluster_speaker_switch&#45;&gt;cluster_speaker_switch_3 -->
<g id="edge14" class="edge"><title>cluster_speaker_switch&#45;&gt;cluster_speaker_switch_3</title>
<path fill="none" stroke="black" d="M234.137,-198.279C252.813,-183.572 279.269,-162.738 299.814,-146.559"/>
<polygon fill="black" stroke="black" points="302.243,-149.101 307.934,-140.165 297.912,-143.602 302.243,-149.101"/>
<text text-anchor="middle" x="308" y="-161.8" font-family="Times,serif" font-size="14.00">ethernet</text>
</g>
<!-- laptop -->
<g id="node30" class="node"><title>laptop</title>
<polygon fill="none" stroke="black" points="610,-36 556,-36 556,-0 610,-0 610,-36"/>
<text text-anchor="middle" x="583" y="-14.3" font-family="Times,serif" font-size="14.00">laptop</text>
</g>
<!-- cluster_speaker_switch_2&#45;&gt;laptop -->
<g id="edge26" class="edge"><title>cluster_speaker_switch_2&#45;&gt;laptop</title>
<path fill="none" stroke="black" d="M241.35,-101.898C248.838,-99.0664 256.595,-96.3158 264,-94 364.141,-62.6829 485.557,-37.5635 545.621,-25.9655"/>
<polygon fill="black" stroke="black" points="546.595,-29.3426 555.758,-24.0243 545.278,-22.4676 546.595,-29.3426"/>
<text text-anchor="middle" x="456.5" y="-72.8" font-family="Times,serif" font-size="14.00">ethernet</text>
<text text-anchor="middle" x="456.5" y="-57.8" font-family="Times,serif" font-size="14.00">monitoring only</text>
</g>
<!-- cluster_speaker_switch_3&#45;&gt;inet -->
<g id="edge27" class="edge"><title>cluster_speaker_switch_3&#45;&gt;inet</title>
<path fill="none" stroke="black" d="M371.613,-101.932C379.879,-98.8462 388.614,-95.9972 397,-94 443.894,-82.832 457.339,-91.2269 505,-84 590.338,-71.06 687.63,-49.2414 749.396,-34.4897"/>
<polygon fill="black" stroke="black" points="750.467,-37.8322 759.373,-32.0944 748.833,-31.0256 750.467,-37.8322"/>
<text text-anchor="middle" x="679" y="-65.3" font-family="Times,serif" font-size="14.00">ethernet</text>
</g>
<!-- cluster_psu -->
<g id="node20" class="node"><title>cluster_psu</title>
<g id="a_node20"><a xlink:href="http://www.lc-power.com/produkte/netzteile/micro-atx/lc380m-v22" xlink:title="micro atx psu">
<polygon fill="lightgrey" stroke="black" points="251,-754 159,-754 159,-718 251,-718 251,-754"/>
<text text-anchor="middle" x="205" y="-732.3" font-family="Times,serif" font-size="14.00">micro atx psu</text>
</a>
</g>
</g>
<!-- cluster_camera_bpi -->
<g id="node22" class="node"><title>cluster_camera_bpi</title>
<g id="a_node22"><a xlink:href="http://www.bananapi.org/p/product.html" xlink:title="banana pi\n5v">
<polygon fill="lightgrey" stroke="black" points="885.5,-452 816.5,-452 816.5,-414 885.5,-414 885.5,-452"/>
<text text-anchor="middle" x="851" y="-436.8" font-family="Times,serif" font-size="14.00">banana pi</text>
<text text-anchor="middle" x="851" y="-421.8" font-family="Times,serif" font-size="14.00">5v</text>
</a>
</g>
</g>
<!-- cluster_camera_h264&#45;&gt;cluster_camera_bpi -->
<g id="edge15" class="edge"><title>cluster_camera_h264&#45;&gt;cluster_camera_bpi</title>
<path fill="none" stroke="black" d="M851,-502.974C851,-491.192 851,-475.561 851,-462.158"/>
<polygon fill="black" stroke="black" points="854.5,-462.003 851,-452.003 847.5,-462.003 854.5,-462.003"/>
<text text-anchor="middle" x="860.5" y="-473.8" font-family="Times,serif" font-size="14.00">usb</text>
</g>
<!-- cluster_camera_switch -->
<g id="node23" class="node"><title>cluster_camera_switch</title>
<g id="a_node23"><a xlink:href="http://us.dlink.com/wp-content/uploads/2014/03/GO-SW-8G_REVC_DATASHEET_1.00_EN.pdf" xlink:title="5 port ethernet switch\n5v">
<polygon fill="lightgrey" stroke="black" points="755.5,-348 620.5,-348 620.5,-310 755.5,-310 755.5,-348"/>
<text text-anchor="middle" x="688" y="-332.8" font-family="Times,serif" font-size="14.00">5 port ethernet switch</text>
<text text-anchor="middle" x="688" y="-317.8" font-family="Times,serif" font-size="14.00">5v</text>
</a>
</g>
</g>
<!-- cluster_camera_bpi&#45;&gt;cluster_camera_switch -->
<g id="edge16" class="edge"><title>cluster_camera_bpi&#45;&gt;cluster_camera_switch</title>
<path fill="none" stroke="black" d="M822.234,-413.999C795.398,-397.206 755.195,-372.048 725.782,-353.642"/>
<polygon fill="black" stroke="black" points="727.36,-350.502 717.027,-348.164 723.647,-356.436 727.36,-350.502"/>
<text text-anchor="middle" x="810" y="-384.8" font-family="Times,serif" font-size="14.00">ethernet</text>
</g>
<!-- cluster_camera_storage -->
<g id="node27" class="node"><title>cluster_camera_storage</title>
<polygon fill="lightgrey" stroke="black" points="928.5,-363 773.5,-363 773.5,-295 928.5,-295 928.5,-363"/>
<text text-anchor="middle" x="851" y="-347.8" font-family="Times,serif" font-size="14.00">storage</text>
<text text-anchor="middle" x="851" y="-332.8" font-family="Times,serif" font-size="14.00">&gt;=32Gb ssd</text>
<text text-anchor="middle" x="851" y="-317.8" font-family="Times,serif" font-size="14.00">5v</text>
<text text-anchor="middle" x="851" y="-302.8" font-family="Times,serif" font-size="14.00">separate power from bpi!</text>
</g>
<!-- cluster_camera_bpi&#45;&gt;cluster_camera_storage -->
<g id="edge17" class="edge"><title>cluster_camera_bpi&#45;&gt;cluster_camera_storage</title>
<path fill="none" stroke="black" d="M851,-413.764C851,-402.513 851,-387.573 851,-373.428"/>
<polygon fill="black" stroke="black" points="854.5,-373.332 851,-363.332 847.5,-373.332 854.5,-373.332"/>
<text text-anchor="middle" x="862" y="-384.8" font-family="Times,serif" font-size="14.00">sata</text>
</g>
<!-- cluster_camera_monitoring_panel -->
<g id="node28" class="node"><title>cluster_camera_monitoring_panel</title>
<g id="a_node28"><a xlink:href="http://embeddedcomputer.nl/banana-pi-14/banana-pi-3-5-lcd-screen.html" xlink:title="3.5 in lcd panel\n5v 250mA">
<polygon fill="lightgrey" stroke="black" points="1047.5,-348 946.5,-348 946.5,-310 1047.5,-310 1047.5,-348"/>
<text text-anchor="middle" x="997" y="-332.8" font-family="Times,serif" font-size="14.00">3.5 in lcd panel</text>
<text text-anchor="middle" x="997" y="-317.8" font-family="Times,serif" font-size="14.00">5v 250mA</text>
</a>
</g>
</g>
<!-- cluster_camera_bpi&#45;&gt;cluster_camera_monitoring_panel -->
<g id="edge18" class="edge"><title>cluster_camera_bpi&#45;&gt;cluster_camera_monitoring_panel</title>
<path fill="none" stroke="black" d="M876.766,-413.999C900.596,-397.351 936.193,-372.481 962.475,-354.12"/>
<polygon fill="black" stroke="black" points="964.808,-356.76 971.001,-348.164 960.799,-351.022 964.808,-356.76"/>
<text text-anchor="middle" x="949" y="-384.8" font-family="Times,serif" font-size="14.00">fpc cable</text>
</g>
<!-- cluster_camera_switch_1 -->
<g id="node24" class="node"><title>cluster_camera_switch_1</title>
<g id="a_node24"><a xlink:href="http://www.alibaba.com/product-detail/Panel-mount-Screw-lock-Cat5e-Coupler_1799594993.html" xlink:title="ethernet coupler 1\n(panel mount)">
<polygon fill="lightgrey" stroke="black" points="735.5,-236.5 620.5,-236.5 620.5,-198.5 735.5,-198.5 735.5,-236.5"/>
<text text-anchor="middle" x="678" y="-221.3" font-family="Times,serif" font-size="14.00">ethernet coupler 1</text>
<text text-anchor="middle" x="678" y="-206.3" font-family="Times,serif" font-size="14.00">(panel mount)</text>
</a>
</g>
</g>
<!-- cluster_camera_switch&#45;&gt;cluster_camera_switch_1 -->
<g id="edge19" class="edge"><title>cluster_camera_switch&#45;&gt;cluster_camera_switch_1</title>
<path fill="none" stroke="black" d="M686.349,-309.918C684.778,-292.721 682.392,-266.589 680.572,-246.663"/>
<polygon fill="black" stroke="black" points="684.049,-246.249 679.654,-236.609 677.078,-246.885 684.049,-246.249"/>
<text text-anchor="middle" x="706" y="-265.8" font-family="Times,serif" font-size="14.00">ethernet</text>
</g>
<!-- cluster_camera_switch_2 -->
<g id="node25" class="node"><title>cluster_camera_switch_2</title>
<g id="a_node25"><a xlink:href="http://www.alibaba.com/product-detail/Panel-mount-Screw-lock-Cat5e-Coupler_1799594993.html" xlink:title="ethernet coupler 2\n(panel mount)">
<polygon fill="lightgrey" stroke="black" points="868.5,-236.5 753.5,-236.5 753.5,-198.5 868.5,-198.5 868.5,-236.5"/>
<text text-anchor="middle" x="811" y="-221.3" font-family="Times,serif" font-size="14.00">ethernet coupler 2</text>
<text text-anchor="middle" x="811" y="-206.3" font-family="Times,serif" font-size="14.00">(panel mount)</text>
</a>
</g>
</g>
<!-- cluster_camera_switch&#45;&gt;cluster_camera_switch_2 -->
<g id="edge20" class="edge"><title>cluster_camera_switch&#45;&gt;cluster_camera_switch_2</title>
<path fill="none" stroke="black" d="M708.311,-309.918C728.697,-291.77 760.259,-263.672 783.011,-243.417"/>
<polygon fill="black" stroke="black" points="785.517,-245.872 790.659,-236.609 780.863,-240.644 785.517,-245.872"/>
<text text-anchor="middle" x="783" y="-265.8" font-family="Times,serif" font-size="14.00">ethernet</text>
</g>
<!-- cluster_camera_switch_3 -->
<g id="node26" class="node"><title>cluster_camera_switch_3</title>
<g id="a_node26"><a xlink:href="http://www.alibaba.com/product-detail/Panel-mount-Screw-lock-Cat5e-Coupler_1799594993.html" xlink:title="ethernet coupler 3\n(panel mount)">
<polygon fill="lightgrey" stroke="black" points="1001.5,-236.5 886.5,-236.5 886.5,-198.5 1001.5,-198.5 1001.5,-236.5"/>
<text text-anchor="middle" x="944" y="-221.3" font-family="Times,serif" font-size="14.00">ethernet coupler 3</text>
<text text-anchor="middle" x="944" y="-206.3" font-family="Times,serif" font-size="14.00">(panel mount)</text>
</a>
</g>
</g>
<!-- cluster_camera_switch&#45;&gt;cluster_camera_switch_3 -->
<g id="edge21" class="edge"><title>cluster_camera_switch&#45;&gt;cluster_camera_switch_3</title>
<path fill="none" stroke="black" d="M728.927,-309.969C740.259,-305.048 752.582,-299.761 764,-295 783.881,-286.709 789.116,-285.283 809,-277 837.122,-265.285 868.341,-251.789 893.669,-240.714"/>
<polygon fill="black" stroke="black" points="895.313,-243.815 903.068,-236.596 892.504,-237.403 895.313,-243.815"/>
<text text-anchor="middle" x="864" y="-265.8" font-family="Times,serif" font-size="14.00">ethernet</text>
</g>
<!-- cluster_camera_switch_1&#45;&gt;cluster_speaker_switch_1 -->
<g id="edge23" class="edge"><title>cluster_camera_switch_1&#45;&gt;cluster_speaker_switch_1</title>
<path fill="none" stroke="black" d="M627.773,-194.32C593.553,-179.209 548.429,-159.283 514.213,-144.173"/>
<polygon fill="black" stroke="black" points="626.43,-197.553 636.992,-198.391 629.258,-191.15 626.43,-197.553"/>
<polygon fill="black" stroke="black" points="515.431,-140.885 504.869,-140.047 512.603,-147.289 515.431,-140.885"/>
<text text-anchor="middle" x="600" y="-161.8" font-family="Times,serif" font-size="14.00">ethernet</text>
</g>
<!-- cluster_camera_switch_2&#45;&gt;laptop -->
<g id="edge24" class="edge"><title>cluster_camera_switch_2&#45;&gt;laptop</title>
<path fill="none" stroke="black" d="M789.959,-198.274C748.568,-162.42 656.59,-82.7458 610.475,-42.8"/>
<polygon fill="black" stroke="black" points="612.536,-39.9545 602.686,-36.0525 607.953,-45.2455 612.536,-39.9545"/>
<text text-anchor="middle" x="764.5" y="-124.8" font-family="Times,serif" font-size="14.00">ethernet</text>
<text text-anchor="middle" x="764.5" y="-109.8" font-family="Times,serif" font-size="14.00">monitoring only</text>
</g>
<!-- cluster_camera_switch_3&#45;&gt;inet -->
<g id="edge25" class="edge"><title>cluster_camera_switch_3&#45;&gt;inet</title>
<path fill="none" stroke="black" d="M931.818,-198.274C908.203,-162.939 856.142,-85.046 829.084,-44.5616"/>
<polygon fill="black" stroke="black" points="831.864,-42.4217 823.397,-36.0525 826.044,-46.3114 831.864,-42.4217"/>
<text text-anchor="middle" x="913" y="-117.3" font-family="Times,serif" font-size="14.00">ethernet</text>
</g>
<!-- cluster_camera_psu -->
<g id="node29" class="node"><title>cluster_camera_psu</title>
<g id="a_node29"><a xlink:href="http://www.lc-power.com/produkte/netzteile/micro-atx/lc380m-v22" xlink:title="micro atx psu">
<polygon fill="lightgrey" stroke="black" points="750,-540 658,-540 658,-504 750,-504 750,-540"/>
<text text-anchor="middle" x="704" y="-518.3" font-family="Times,serif" font-size="14.00">micro atx psu</text>
</a>
</g>
</g>
</g>
</svg>
